<svg width="1691" height="1211.5" xmlns="http://www.w3.org/2000/svg" xmlns:xlink="http://www.w3.org/1999/xlink" fill="#ffffff"><defs><style>
  text {
    fill: #212529;
    font-family: Helvetica Neue, Helvetica, Arial, sans-serif;
    font-size: 16px;
  }

  marker, text {
    fill-opacity: 1;
  }

  * {
    overflow: visible;
  }
</style></defs><svg x="320" y="220" width="180" height="250" class="User" fill="#ffffff"><g><rect width="100%" height="40" stroke="none" fill="white" class="sc-fqkvVR eDtKfR"></rect><rect y="40" width="100%" height="210" stroke="none" fill="white" class="sc-fqkvVR eDtKfR"></rect><svg height="40"><text x="50%" y="50%" dominant-baseline="middle" text-anchor="middle" font-weight="bold" pointer-events="none">User</text></svg><svg x="0" y="40.5" width="179" height="30" class="id: string" fill="#ffffff"><g><rect width="100%" height="100%" stroke="none" fill="white" class="sc-fqkvVR eDtKfR"></rect><text x="10" y="50%" dominant-baseline="middle" text-anchor="start" font-weight="normal" pointer-events="none">id: string</text></g></svg><svg x="0" y="70.5" width="179" height="30" class="username: String" fill="#ffffff"><g><rect width="100%" height="100%" stroke="none" fill="white" class="sc-fqkvVR eDtKfR"></rect><text x="10" y="50%" dominant-baseline="middle" text-anchor="start" font-weight="normal" pointer-events="none">username: String</text></g></svg><svg x="0" y="100.5" width="179" height="30" class="email: String" fill="#ffffff"><g><rect width="100%" height="100%" stroke="none" fill="white" class="sc-fqkvVR eDtKfR"></rect><text x="10" y="50%" dominant-baseline="middle" text-anchor="start" font-weight="normal" pointer-events="none">email: String</text></g></svg><svg x="0" y="130.5" width="179" height="30" class="enabledEmailFlag: int" fill="#ffffff"><g><rect width="100%" height="100%" stroke="none" fill="white" class="sc-fqkvVR eDtKfR"></rect><text x="10" y="50%" dominant-baseline="middle" text-anchor="start" font-weight="normal" pointer-events="none">enabledEmailFlag: int</text></g></svg><svg x="0" y="160.5" width="179" height="30" class="passwordHash: String" fill="#ffffff"><g><rect width="100%" height="100%" stroke="none" fill="white" class="sc-fqkvVR eDtKfR"></rect><text x="10" y="50%" dominant-baseline="middle" text-anchor="start" font-weight="normal" pointer-events="none">passwordHash: String</text></g></svg><svg x="0" y="190.5" width="179" height="30" class="login()" fill="#ffffff"><g><rect width="100%" height="100%" stroke="none" fill="white" class="sc-fqkvVR eDtKfR"></rect><text x="10" y="50%" dominant-baseline="middle" text-anchor="start" font-weight="normal" pointer-events="none">login()</text></g></svg><svg x="0" y="220.5" width="179" height="30" class="setPreferences()" fill="#ffffff"><g><rect width="100%" height="100%" stroke="none" fill="white" class="sc-fqkvVR eDtKfR"></rect><text x="10" y="50%" dominant-baseline="middle" text-anchor="start" font-weight="normal" pointer-events="none">setPreferences()</text></g></svg><rect width="100%" height="100%" stroke="black" fill="none" class="sc-fqkvVR jAaomD"></rect><path d="M 0 40 H 180" stroke="black" fill="white" class="sc-gEvEer fkqzOi"></path><path d="M 0 190 H 180" stroke="black" fill="white" class="sc-gEvEer fkqzOi"></path></g></svg><svg x="1060" y="200" width="170" height="310" class="Report" fill="#ffffff"><g><rect width="100%" height="40" stroke="none" fill="white" class="sc-fqkvVR eDtKfR"></rect><rect y="40" width="100%" height="270" stroke="none" fill="white" class="sc-fqkvVR eDtKfR"></rect><svg height="40"><text x="50%" y="50%" dominant-baseline="middle" text-anchor="middle" font-weight="bold" pointer-events="none">Report</text></svg><svg x="0" y="40.5" width="169" height="30" class="id: String " fill="#ffffff"><g><rect width="100%" height="100%" stroke="none" fill="white" class="sc-fqkvVR eDtKfR"></rect><text x="10" y="50%" dominant-baseline="middle" text-anchor="start" font-weight="normal" pointer-events="none">id: String </text></g></svg><svg x="0" y="70.5" width="169" height="30" class="title: String" fill="#ffffff"><g><rect width="100%" height="100%" stroke="none" fill="white" class="sc-fqkvVR eDtKfR"></rect><text x="10" y="50%" dominant-baseline="middle" text-anchor="start" font-weight="normal" pointer-events="none">title: String</text></g></svg><svg x="0" y="100.5" width="169" height="30" class="description: String" fill="#ffffff"><g><rect width="100%" height="100%" stroke="none" fill="white" class="sc-fqkvVR eDtKfR"></rect><text x="10" y="50%" dominant-baseline="middle" text-anchor="start" font-weight="normal" pointer-events="none">description: String</text></g></svg><svg x="0" y="130.5" width="169" height="30" class="status: ReportStatus" fill="#ffffff"><g><rect width="100%" height="100%" stroke="none" fill="white" class="sc-fqkvVR eDtKfR"></rect><text x="10" y="50%" dominant-baseline="middle" text-anchor="start" font-weight="normal" pointer-events="none">status: ReportStatus</text></g></svg><svg x="0" y="160.5" width="169" height="30" class="anonymousFlag: int" fill="#ffffff"><g><rect width="100%" height="100%" stroke="none" fill="white" class="sc-fqkvVR eDtKfR"></rect><text x="10" y="50%" dominant-baseline="middle" text-anchor="start" font-weight="normal" pointer-events="none">anonymousFlag: int</text></g></svg><svg x="0" y="190.5" width="169" height="30" class="created: date" fill="#ffffff"><g><rect width="100%" height="100%" stroke="none" fill="white" class="sc-fqkvVR eDtKfR"></rect><text x="10" y="50%" dominant-baseline="middle" text-anchor="start" font-weight="normal" pointer-events="none">created: date</text></g></svg><svg x="0" y="220.5" width="169" height="30" class="updateStatus()" fill="#ffffff"><g><rect width="100%" height="100%" stroke="none" fill="white" class="sc-fqkvVR eDtKfR"></rect><text x="10" y="50%" dominant-baseline="middle" text-anchor="start" font-weight="normal" pointer-events="none">updateStatus()</text></g></svg><svg x="0" y="250.5" width="169" height="30" class="addPhoto()" fill="#ffffff"><g><rect width="100%" height="100%" stroke="none" fill="white" class="sc-fqkvVR eDtKfR"></rect><text x="10" y="50%" dominant-baseline="middle" text-anchor="start" font-weight="normal" pointer-events="none">addPhoto()</text></g></svg><svg x="0" y="280.5" width="169" height="30" class="getDetails()" fill="#ffffff"><g><rect width="100%" height="100%" stroke="none" fill="white" class="sc-fqkvVR eDtKfR"></rect><text x="10" y="50%" dominant-baseline="middle" text-anchor="start" font-weight="normal" pointer-events="none">getDetails()</text></g></svg><rect width="100%" height="100%" stroke="black" fill="none" class="sc-fqkvVR jAaomD"></rect><path d="M 0 40 H 170" stroke="black" fill="white" class="sc-gEvEer fkqzOi"></path><path d="M 0 220 H 170" stroke="black" fill="white" class="sc-gEvEer fkqzOi"></path></g></svg><svg x="600" y="530" width="160" height="160" class="Directs" fill="#ffffff"><g><rect width="100%" height="40" stroke="none" fill="white" class="sc-fqkvVR eDtKfR"></rect><rect y="40" width="100%" height="120" stroke="none" fill="white" class="sc-fqkvVR eDtKfR"></rect><svg height="40"><text x="50%" y="50%" dominant-baseline="middle" text-anchor="middle" font-weight="bold" pointer-events="none">Directs</text></svg><svg x="0" y="40.5" width="159" height="30" class="id: String" fill="#ffffff"><g><rect width="100%" height="100%" stroke="none" fill="white" class="sc-fqkvVR eDtKfR"></rect><text x="10" y="50%" dominant-baseline="middle" text-anchor="start" font-weight="normal" pointer-events="none">id: String</text></g></svg><svg x="0" y="70.5" width="159" height="30" class="content: String" fill="#ffffff"><g><rect width="100%" height="100%" stroke="none" fill="white" class="sc-fqkvVR eDtKfR"></rect><text x="10" y="50%" dominant-baseline="middle" text-anchor="start" font-weight="normal" pointer-events="none">content: String</text></g></svg><svg x="0" y="100.5" width="159" height="30" class="timestamp: date" fill="#ffffff"><g><rect width="100%" height="100%" stroke="none" fill="white" class="sc-fqkvVR eDtKfR"></rect><text x="10" y="50%" dominant-baseline="middle" text-anchor="start" font-weight="normal" pointer-events="none">timestamp: date</text></g></svg><svg x="0" y="130.5" width="159" height="30" class="+ method()" fill="#ffffff"><g><rect width="100%" height="100%" stroke="none" fill="white" class="sc-fqkvVR eDtKfR"></rect><text x="10" y="50%" dominant-baseline="middle" text-anchor="start" font-weight="normal" pointer-events="none">+ method()</text></g></svg><rect width="100%" height="100%" stroke="black" fill="none" class="sc-fqkvVR jAaomD"></rect><path d="M 0 40 H 160" stroke="black" fill="white" class="sc-gEvEer fkqzOi"></path><path d="M 0 130 H 160" stroke="black" fill="white" class="sc-gEvEer fkqzOi"></path></g></svg><svg x="30" y="130" width="170" height="160" class="Admin" fill="#ffffff"><g><rect width="100%" height="40" stroke="none" fill="white" class="sc-fqkvVR eDtKfR"></rect><rect y="40" width="100%" height="120" stroke="none" fill="white" class="sc-fqkvVR eDtKfR"></rect><svg height="40"><text x="50%" y="50%" dominant-baseline="middle" text-anchor="middle" font-weight="bold" pointer-events="none">Admin</text></svg><svg x="0" y="40.5" width="169" height="30" class="+ attribute: Type" fill="#ffffff"><g><rect width="100%" height="100%" stroke="none" fill="white" class="sc-fqkvVR eDtKfR"></rect><text x="10" y="50%" dominant-baseline="middle" text-anchor="start" font-weight="normal" pointer-events="none">+ attribute: Type</text></g></svg><svg x="0" y="70.5" width="169" height="30" class="manageCategories()" fill="#ffffff"><g><rect width="100%" height="100%" stroke="none" fill="white" class="sc-fqkvVR eDtKfR"></rect><text x="10" y="50%" dominant-baseline="middle" text-anchor="start" font-weight="normal" pointer-events="none">manageCategories()</text></g></svg><svg x="0" y="100.5" width="169" height="30" class="manageUsers()" fill="#ffffff"><g><rect width="100%" height="100%" stroke="none" fill="white" class="sc-fqkvVR eDtKfR"></rect><text x="10" y="50%" dominant-baseline="middle" text-anchor="start" font-weight="normal" pointer-events="none">manageUsers()</text></g></svg><svg x="0" y="130.5" width="169" height="30" class="viewAnalytics()" fill="#ffffff"><g><rect width="100%" height="100%" stroke="none" fill="white" class="sc-fqkvVR eDtKfR"></rect><text x="10" y="50%" dominant-baseline="middle" text-anchor="start" font-weight="normal" pointer-events="none">viewAnalytics()</text></g></svg><rect width="100%" height="100%" stroke="black" fill="none" class="sc-fqkvVR jAaomD"></rect><path d="M 0 40 H 170" stroke="black" fill="white" class="sc-gEvEer fkqzOi"></path><path d="M 0 70 H 170" stroke="black" fill="white" class="sc-gEvEer fkqzOi"></path></g></svg><svg x="20" y="550" width="160" height="190" class="Office" fill="#ffffff"><g><rect width="100%" height="40" stroke="none" fill="white" class="sc-fqkvVR eDtKfR"></rect><rect y="40" width="100%" height="150" stroke="none" fill="white" class="sc-fqkvVR eDtKfR"></rect><svg height="40"><text x="50%" y="50%" dominant-baseline="middle" text-anchor="middle" font-weight="bold" pointer-events="none">Office</text></svg><svg x="0" y="40.5" width="159" height="30" class="+ attribute: Type" fill="#ffffff"><g><rect width="100%" height="100%" stroke="none" fill="white" class="sc-fqkvVR eDtKfR"></rect><text x="10" y="50%" dominant-baseline="middle" text-anchor="start" font-weight="normal" pointer-events="none">+ attribute: Type</text></g></svg><svg x="0" y="70.5" width="159" height="30" class="reviewReport()" fill="#ffffff"><g><rect width="100%" height="100%" stroke="none" fill="white" class="sc-fqkvVR eDtKfR"></rect><text x="10" y="50%" dominant-baseline="middle" text-anchor="start" font-weight="normal" pointer-events="none">reviewReport()</text></g></svg><svg x="0" y="100.5" width="159" height="30" class="assignReport()" fill="#ffffff"><g><rect width="100%" height="100%" stroke="none" fill="white" class="sc-fqkvVR eDtKfR"></rect><text x="10" y="50%" dominant-baseline="middle" text-anchor="start" font-weight="normal" pointer-events="none">assignReport()</text></g></svg><svg x="0" y="130.5" width="159" height="30" class="rejectReport()" fill="#ffffff"><g><rect width="100%" height="100%" stroke="none" fill="white" class="sc-fqkvVR eDtKfR"></rect><text x="10" y="50%" dominant-baseline="middle" text-anchor="start" font-weight="normal" pointer-events="none">rejectReport()</text></g></svg><svg x="0" y="160.5" width="159" height="30" class="updateStatus()" fill="#ffffff"><g><rect width="100%" height="100%" stroke="none" fill="white" class="sc-fqkvVR eDtKfR"></rect><text x="10" y="50%" dominant-baseline="middle" text-anchor="start" font-weight="normal" pointer-events="none">updateStatus()</text></g></svg><rect width="100%" height="100%" stroke="black" fill="none" class="sc-fqkvVR jAaomD"></rect><path d="M 0 40 H 160" stroke="black" fill="white" class="sc-gEvEer fkqzOi"></path><path d="M 0 70 H 160" stroke="black" fill="white" class="sc-gEvEer fkqzOi"></path></g></svg><svg x="780" y="320" width="160" height="190" class="Registered" fill="#ffffff"><g><rect width="100%" height="40" stroke="none" fill="white" class="sc-fqkvVR eDtKfR"></rect><rect y="40" width="100%" height="150" stroke="none" fill="white" class="sc-fqkvVR eDtKfR"></rect><svg height="40"><text x="50%" y="50%" dominant-baseline="middle" text-anchor="middle" font-weight="bold" pointer-events="none">Registered</text></svg><svg x="0" y="40.5" width="159" height="30" class="+ attribute: Type" fill="#ffffff"><g><rect width="100%" height="100%" stroke="none" fill="white" class="sc-fqkvVR eDtKfR"></rect><text x="10" y="50%" dominant-baseline="middle" text-anchor="start" font-weight="normal" pointer-events="none">+ attribute: Type</text></g></svg><svg x="0" y="70.5" width="159" height="30" class="createReport()" fill="#ffffff"><g><rect width="100%" height="100%" stroke="none" fill="white" class="sc-fqkvVR eDtKfR"></rect><text x="10" y="50%" dominant-baseline="middle" text-anchor="start" font-weight="normal" pointer-events="none">createReport()</text></g></svg><svg x="0" y="100.5" width="159" height="30" class="followReport()" fill="#ffffff"><g><rect width="100%" height="100%" stroke="none" fill="white" class="sc-fqkvVR eDtKfR"></rect><text x="10" y="50%" dominant-baseline="middle" text-anchor="start" font-weight="normal" pointer-events="none">followReport()</text></g></svg><svg x="0" y="130.5" width="159" height="30" class="sendDirect()" fill="#ffffff"><g><rect width="100%" height="100%" stroke="none" fill="white" class="sc-fqkvVR eDtKfR"></rect><text x="10" y="50%" dominant-baseline="middle" text-anchor="start" font-weight="normal" pointer-events="none">sendDirect()</text></g></svg><svg x="0" y="160.5" width="159" height="30" class="unfollowReport()" fill="#ffffff"><g><rect width="100%" height="100%" stroke="none" fill="white" class="sc-fqkvVR eDtKfR"></rect><text x="10" y="50%" dominant-baseline="middle" text-anchor="start" font-weight="normal" pointer-events="none">unfollowReport()</text></g></svg><rect width="100%" height="100%" stroke="black" fill="none" class="sc-fqkvVR jAaomD"></rect><path d="M 0 40 H 160" stroke="black" fill="white" class="sc-gEvEer fkqzOi"></path><path d="M 0 70 H 160" stroke="black" fill="white" class="sc-gEvEer fkqzOi"></path></g></svg><svg x="600" y="810" width="160" height="160" class="Notification" fill="#ffffff"><g><rect width="100%" height="40" stroke="none" fill="white" class="sc-fqkvVR eDtKfR"></rect><rect y="40" width="100%" height="120" stroke="none" fill="white" class="sc-fqkvVR eDtKfR"></rect><svg height="40"><text x="50%" y="50%" dominant-baseline="middle" text-anchor="middle" font-weight="bold" pointer-events="none">Notification</text></svg><svg x="0" y="40.5" width="159" height="30" class="id: String" fill="#ffffff"><g><rect width="100%" height="100%" stroke="none" fill="white" class="sc-fqkvVR eDtKfR"></rect><text x="10" y="50%" dominant-baseline="middle" text-anchor="start" font-weight="normal" pointer-events="none">id: String</text></g></svg><svg x="0" y="70.5" width="159" height="30" class="message: String" fill="#ffffff"><g><rect width="100%" height="100%" stroke="none" fill="white" class="sc-fqkvVR eDtKfR"></rect><text x="10" y="50%" dominant-baseline="middle" text-anchor="start" font-weight="normal" pointer-events="none">message: String</text></g></svg><svg x="0" y="100.5" width="159" height="30" class="readFlag: int" fill="#ffffff"><g><rect width="100%" height="100%" stroke="none" fill="white" class="sc-fqkvVR eDtKfR"></rect><text x="10" y="50%" dominant-baseline="middle" text-anchor="start" font-weight="normal" pointer-events="none">readFlag: int</text></g></svg><svg x="0" y="130.5" width="159" height="30" class="+ method()" fill="#ffffff"><g><rect width="100%" height="100%" stroke="none" fill="white" class="sc-fqkvVR eDtKfR"></rect><text x="10" y="50%" dominant-baseline="middle" text-anchor="start" font-weight="normal" pointer-events="none">+ method()</text></g></svg><rect width="100%" height="100%" stroke="black" fill="none" class="sc-fqkvVR jAaomD"></rect><path d="M 0 40 H 160" stroke="black" fill="white" class="sc-gEvEer fkqzOi"></path><path d="M 0 130 H 160" stroke="black" fill="white" class="sc-gEvEer fkqzOi"></path></g></svg><svg x="1300" y="130" width="160" height="160" class="Category" fill="#ffffff"><g><rect width="100%" height="40" stroke="none" fill="white" class="sc-fqkvVR eDtKfR"></rect><rect y="40" width="100%" height="120" stroke="none" fill="white" class="sc-fqkvVR eDtKfR"></rect><svg height="40"><text x="50%" y="50%" dominant-baseline="middle" text-anchor="middle" font-weight="bold" pointer-events="none">Category</text></svg><svg x="0" y="40.5" width="159" height="30" class="id:String" fill="#ffffff"><g><rect width="100%" height="100%" stroke="none" fill="white" class="sc-fqkvVR eDtKfR"></rect><text x="10" y="50%" dominant-baseline="middle" text-anchor="start" font-weight="normal" pointer-events="none">id:String</text></g></svg><svg x="0" y="70.5" width="159" height="30" class="name: String" fill="#ffffff"><g><rect width="100%" height="100%" stroke="none" fill="white" class="sc-fqkvVR eDtKfR"></rect><text x="10" y="50%" dominant-baseline="middle" text-anchor="start" font-weight="normal" pointer-events="none">name: String</text></g></svg><svg x="0" y="100.5" width="159" height="30" class="isActive: int" fill="#ffffff"><g><rect width="100%" height="100%" stroke="none" fill="white" class="sc-fqkvVR eDtKfR"></rect><text x="10" y="50%" dominant-baseline="middle" text-anchor="start" font-weight="normal" pointer-events="none">isActive: int</text></g></svg><svg x="0" y="130.5" width="159" height="30" class="+ method()" fill="#ffffff"><g><rect width="100%" height="100%" stroke="none" fill="white" class="sc-fqkvVR eDtKfR"></rect><text x="10" y="50%" dominant-baseline="middle" text-anchor="start" font-weight="normal" pointer-events="none">+ method()</text></g></svg><rect width="100%" height="100%" stroke="black" fill="none" class="sc-fqkvVR jAaomD"></rect><path d="M 0 40 H 160" stroke="black" fill="white" class="sc-gEvEer fkqzOi"></path><path d="M 0 130 H 160" stroke="black" fill="white" class="sc-gEvEer fkqzOi"></path></g></svg><svg x="600" y="1000" width="170" height="190" class="StatusHistory" fill="#ffffff"><g><rect width="100%" height="40" stroke="none" fill="white" class="sc-fqkvVR eDtKfR"></rect><rect y="40" width="100%" height="150" stroke="none" fill="white" class="sc-fqkvVR eDtKfR"></rect><svg height="40"><text x="50%" y="50%" dominant-baseline="middle" text-anchor="middle" font-weight="bold" pointer-events="none">StatusHistory</text></svg><svg x="0" y="40.5" width="169" height="30" class="id: String" fill="#ffffff"><g><rect width="100%" height="100%" stroke="none" fill="white" class="sc-fqkvVR eDtKfR"></rect><text x="10" y="50%" dominant-baseline="middle" text-anchor="start" font-weight="normal" pointer-events="none">id: String</text></g></svg><svg x="0" y="70.5" width="169" height="30" class="status: ReportStatus" fill="#ffffff"><g><rect width="100%" height="100%" stroke="none" fill="white" class="sc-fqkvVR eDtKfR"></rect><text x="10" y="50%" dominant-baseline="middle" text-anchor="start" font-weight="normal" pointer-events="none">status: ReportStatus</text></g></svg><svg x="0" y="100.5" width="169" height="30" class="date: date" fill="#ffffff"><g><rect width="100%" height="100%" stroke="none" fill="white" class="sc-fqkvVR eDtKfR"></rect><text x="10" y="50%" dominant-baseline="middle" text-anchor="start" font-weight="normal" pointer-events="none">date: date</text></g></svg><svg x="0" y="130.5" width="169" height="30" class="notes: String" fill="#ffffff"><g><rect width="100%" height="100%" stroke="none" fill="white" class="sc-fqkvVR eDtKfR"></rect><text x="10" y="50%" dominant-baseline="middle" text-anchor="start" font-weight="normal" pointer-events="none">notes: String</text></g></svg><svg x="0" y="160.5" width="169" height="30" class="+ method()" fill="#ffffff"><g><rect width="100%" height="100%" stroke="none" fill="white" class="sc-fqkvVR eDtKfR"></rect><text x="10" y="50%" dominant-baseline="middle" text-anchor="start" font-weight="normal" pointer-events="none">+ method()</text></g></svg><rect width="100%" height="100%" stroke="black" fill="none" class="sc-fqkvVR jAaomD"></rect><path d="M 0 40 H 170" stroke="black" fill="white" class="sc-gEvEer fkqzOi"></path><path d="M 0 160 H 170" stroke="black" fill="white" class="sc-gEvEer fkqzOi"></path></g></svg><svg x="1300" y="390" width="160" height="130" class="Photo" fill="#ffffff"><g><rect width="100%" height="40" stroke="none" fill="white" class="sc-fqkvVR eDtKfR"></rect><rect y="40" width="100%" height="90" stroke="none" fill="white" class="sc-fqkvVR eDtKfR"></rect><svg height="40"><text x="50%" y="50%" dominant-baseline="middle" text-anchor="middle" font-weight="bold" pointer-events="none">Photo</text></svg><svg x="0" y="40.5" width="159" height="30" class="id: String" fill="#ffffff"><g><rect width="100%" height="100%" stroke="none" fill="white" class="sc-fqkvVR eDtKfR"></rect><text x="10" y="50%" dominant-baseline="middle" text-anchor="start" font-weight="normal" pointer-events="none">id: String</text></g></svg><svg x="0" y="70.5" width="159" height="30" class="url: String" fill="#ffffff"><g><rect width="100%" height="100%" stroke="none" fill="white" class="sc-fqkvVR eDtKfR"></rect><text x="10" y="50%" dominant-baseline="middle" text-anchor="start" font-weight="normal" pointer-events="none">url: String</text></g></svg><svg x="0" y="100.5" width="159" height="30" class="+ method()" fill="#ffffff"><g><rect width="100%" height="100%" stroke="none" fill="white" class="sc-fqkvVR eDtKfR"></rect><text x="10" y="50%" dominant-baseline="middle" text-anchor="start" font-weight="normal" pointer-events="none">+ method()</text></g></svg><rect width="100%" height="100%" stroke="black" fill="none" class="sc-fqkvVR jAaomD"></rect><path d="M 0 40 H 160" stroke="black" fill="white" class="sc-gEvEer fkqzOi"></path><path d="M 0 100 H 160" stroke="black" fill="white" class="sc-gEvEer fkqzOi"></path></g></svg><svg x="1510" y="250" width="160" height="130" class="Location" fill="#ffffff"><g><rect width="100%" height="40" stroke="none" fill="white" class="sc-fqkvVR eDtKfR"></rect><rect y="40" width="100%" height="90" stroke="none" fill="white" class="sc-fqkvVR eDtKfR"></rect><svg height="40"><text x="50%" y="50%" dominant-baseline="middle" text-anchor="middle" font-weight="bold" pointer-events="none">Location</text></svg><svg x="0" y="40.5" width="159" height="30" class="lat: float" fill="#ffffff"><g><rect width="100%" height="100%" stroke="none" fill="white" class="sc-fqkvVR eDtKfR"></rect><text x="10" y="50%" dominant-baseline="middle" text-anchor="start" font-weight="normal" pointer-events="none">lat: float</text></g></svg><svg x="0" y="70.5" width="159" height="30" class="long: float" fill="#ffffff"><g><rect width="100%" height="100%" stroke="none" fill="white" class="sc-fqkvVR eDtKfR"></rect><text x="10" y="50%" dominant-baseline="middle" text-anchor="start" font-weight="normal" pointer-events="none">long: float</text></g></svg><svg x="0" y="100.5" width="159" height="30" class="+ method()" fill="#ffffff"><g><rect width="100%" height="100%" stroke="none" fill="white" class="sc-fqkvVR eDtKfR"></rect><text x="10" y="50%" dominant-baseline="middle" text-anchor="start" font-weight="normal" pointer-events="none">+ method()</text></g></svg><rect width="100%" height="100%" stroke="black" fill="none" class="sc-fqkvVR jAaomD"></rect><path d="M 0 40 H 160" stroke="black" fill="white" class="sc-gEvEer fkqzOi"></path><path d="M 0 100 H 160" stroke="black" fill="white" class="sc-gEvEer fkqzOi"></path></g></svg><svg x="710" y="20" width="160" height="100" class="Follow" fill="#ffffff"><g><rect width="100%" height="40" stroke="none" fill="white" class="sc-fqkvVR eDtKfR"></rect><rect y="40" width="100%" height="60" stroke="none" fill="white" class="sc-fqkvVR eDtKfR"></rect><svg height="40"><text x="50%" y="50%" dominant-baseline="middle" text-anchor="middle" font-weight="bold" pointer-events="none">Follow</text></svg><svg x="0" y="40.5" width="159" height="30" class="date: date" fill="#ffffff"><g><rect width="100%" height="100%" stroke="none" fill="white" class="sc-fqkvVR eDtKfR"></rect><text x="10" y="50%" dominant-baseline="middle" text-anchor="start" font-weight="normal" pointer-events="none">date: date</text></g></svg><svg x="0" y="70.5" width="159" height="30" class="+ method()" fill="#ffffff"><g><rect width="100%" height="100%" stroke="none" fill="white" class="sc-fqkvVR eDtKfR"></rect><text x="10" y="50%" dominant-baseline="middle" text-anchor="start" font-weight="normal" pointer-events="none">+ method()</text></g></svg><rect width="100%" height="100%" stroke="black" fill="none" class="sc-fqkvVR jAaomD"></rect><path d="M 0 40 H 160" stroke="black" fill="white" class="sc-gEvEer fkqzOi"></path><path d="M 0 70 H 160" stroke="black" fill="white" class="sc-gEvEer fkqzOi"></path></g></svg><svg x="110" y="90" width="210" height="213.5" class="" fill="#ffffff"><g><marker id="marker-e0165cea-a285-488e-9d87-125f303f9675" viewBox="0 0 30 30" markerWidth="22" markerHeight="30" refX="30" refY="15" orient="auto" markerUnits="strokeWidth"><path d="M0,1 L0,29 L30,15 z" stroke="black" fill="white" class="sc-gEvEer fkqzOi"></path></marker><polyline points="5 40,5 0,150 0,150 192.5,210 192.5" stroke-width="1" marker-end="url(#marker-e0165cea-a285-488e-9d87-125f303f9675)" stroke="black" fill="none" class="sc-aXZVg eMElBf"></polyline><text x="5" y="32" dx="5" text-anchor="start" pointer-events="none"></text><text x="179" y="192.5" dy="21" text-anchor="end" pointer-events="none"></text><text x="5" y="32" dx="-5" text-anchor="end" pointer-events="none"></text><text x="179" y="192.5" dy="-10" text-anchor="end" pointer-events="none"></text><text x="190" y="192.5" dy="-5" dominant-baseline="text-after-edge" text-anchor="middle" pointer-events="none"> </text></g></svg><svg x="360" y="180" width="505" height="140" class="" fill="#ffffff"><g><marker id="marker-be217b4c-e1b5-48f7-acce-4ecfb4f0cb58" viewBox="0 0 30 30" markerWidth="22" markerHeight="30" refX="30" refY="15" orient="auto" markerUnits="strokeWidth"><path d="M0,1 L0,29 L30,15 z" stroke="black" fill="white" class="sc-gEvEer fkqzOi"></path></marker><polyline points="500 140,500 0,5 0,5 40" stroke-width="1" marker-end="url(#marker-be217b4c-e1b5-48f7-acce-4ecfb4f0cb58)" stroke="black" fill="none" class="sc-aXZVg eMElBf"></polyline><text x="500" y="132" dx="5" text-anchor="start" pointer-events="none"></text><text x="5" y="9" dx="5" text-anchor="start" pointer-events="none"></text><text x="500" y="132" dx="-5" text-anchor="end" pointer-events="none"></text><text x="5" y="9" dx="-5" text-anchor="end" pointer-events="none"></text><text x="35" y="0" dy="-5" dominant-baseline="text-after-edge" text-anchor="middle" pointer-events="none"> </text></g></svg><svg x="95" y="335" width="225" height="215" class="" fill="#ffffff"><g><marker id="marker-76b3b647-6ddd-4e76-96e1-4231ca43cd17" viewBox="0 0 30 30" markerWidth="22" markerHeight="30" refX="30" refY="15" orient="auto" markerUnits="strokeWidth"><path d="M0,1 L0,29 L30,15 z" stroke="black" fill="white" class="sc-gEvEer fkqzOi"></path></marker><polyline points="5 215,5 10,225 10" stroke-width="1" marker-end="url(#marker-76b3b647-6ddd-4e76-96e1-4231ca43cd17)" stroke="black" fill="none" class="sc-aXZVg eMElBf"></polyline><text x="5" y="207" dx="5" text-anchor="start" pointer-events="none"></text><text x="194" y="10" dy="21" text-anchor="end" pointer-events="none"></text><text x="5" y="207" dx="-5" text-anchor="end" pointer-events="none"></text><text x="194" y="10" dy="-10" text-anchor="end" pointer-events="none"></text><text x="122.5" y="10" dy="-5" dominant-baseline="text-after-edge" text-anchor="middle" pointer-events="none"> </text></g></svg><svg x="1230" y="305" width="280" height="31" class="" fill="#ffffff"><g><polyline points="280 10,0 10" stroke-width="1" marker-end="url(#marker-e1414e3f-5fbc-4757-a329-760fea7ed658)" stroke="black" fill="none" class="sc-aXZVg eMElBf"></polyline><text x="272" y="10" dy="21" text-anchor="end" pointer-events="none"></text><text x="8" y="10" dy="21" text-anchor="start" pointer-events="none"></text><text x="272" y="10" dy="-10" text-anchor="end" pointer-events="none"></text><text x="8" y="10" dy="-10" text-anchor="start" pointer-events="none"></text><text x="140" y="10" dy="-5" dominant-baseline="text-after-edge" text-anchor="middle" pointer-events="none"> </text></g></svg><svg x="1230" y="440" width="70" height="31" class="" fill="#ffffff"><g><polyline points="70 10,0 10" stroke-width="1" marker-end="url(#marker-99c6895b-3179-445c-b3e7-1cd43fcf6124)" stroke="black" fill="none" class="sc-aXZVg eMElBf"></polyline><text x="62" y="10" dy="21" text-anchor="end" pointer-events="none"></text><text x="8" y="10" dy="21" text-anchor="start" pointer-events="none"></text><text x="62" y="10" dy="-10" text-anchor="end" pointer-events="none"></text><text x="8" y="10" dy="-10" text-anchor="start" pointer-events="none"></text><text x="35" y="10" dy="-5" dominant-baseline="text-after-edge" text-anchor="middle" pointer-events="none"> </text></g></svg><svg x="1230" y="235" width="70" height="31" class="" fill="#ffffff"><g><polyline points="70 10,0 10" stroke-width="1" marker-end="url(#marker-e2153934-01f2-4a8d-a758-60babf23ff44)" stroke="black" fill="none" class="sc-aXZVg eMElBf"></polyline><text x="62" y="10" dy="21" text-anchor="end" pointer-events="none"></text><text x="8" y="10" dy="21" text-anchor="start" pointer-events="none"></text><text x="62" y="10" dy="-10" text-anchor="end" pointer-events="none"></text><text x="8" y="10" dy="-10" text-anchor="start" pointer-events="none"></text><text x="35" y="10" dy="-5" dominant-baseline="text-after-edge" text-anchor="middle" pointer-events="none"> </text></g></svg><svg x="940" y="405" width="120" height="54" class="createReport" fill="#ffffff"><g><marker id="marker-348bbb69-cafb-40cc-940a-0a10e38dbced" viewBox="0 0 30 30" markerWidth="22" markerHeight="30" refX="30" refY="15" orient="auto" markerUnits="strokeWidth"><path d="M0,29 L30,15 L0,1" stroke="black" fill="none" class="sc-gEvEer bFSwyf"></path></marker><polyline points="0 10,120 10" stroke-width="1" marker-end="url(#marker-348bbb69-cafb-40cc-940a-0a10e38dbced)" stroke="black" fill="none" class="sc-aXZVg eMElBf"></polyline><text x="8" y="10" dy="21" text-anchor="start" pointer-events="none">1</text><text x="89" y="10" dy="21" text-anchor="end" pointer-events="none">*</text><text x="8" y="10" dy="-10" text-anchor="start" pointer-events="none"></text><text x="89" y="10" dy="-10" text-anchor="end" pointer-events="none"></text><text x="60" y="10" dy="-5" dominant-baseline="text-after-edge" text-anchor="middle" pointer-events="none">createReport </text></g></svg><svg x="405" y="60" width="305" height="160" class="" fill="#ffffff"><g><polyline points="5 160,5 10,305 10" stroke-width="1" marker-end="url(#marker-5578292e-9596-4c9f-a29e-ca735c5beeb4)" stroke="black" fill="none" class="sc-aXZVg eMElBf"></polyline><text x="5" y="152" dx="5" text-anchor="start" pointer-events="none"></text><text x="297" y="10" dy="21" text-anchor="end" pointer-events="none"></text><text x="5" y="152" dx="-5" text-anchor="end" pointer-events="none"></text><text x="297" y="10" dy="-10" text-anchor="end" pointer-events="none"></text><text x="230" y="10" dy="-5" dominant-baseline="text-after-edge" text-anchor="middle" pointer-events="none"> </text></g></svg><svg x="870" y="60" width="280" height="140" class="" fill="#ffffff"><g><polyline points="0 10,275 10,275 140" stroke-width="1" marker-end="url(#marker-468d2f0b-7d95-4c57-82ed-b6d29913d167)" stroke="black" fill="none" class="sc-aXZVg eMElBf"></polyline><text x="8" y="10" dy="21" text-anchor="start" pointer-events="none"></text><text x="275" y="132" dx="5" text-anchor="start" pointer-events="none"></text><text x="8" y="10" dy="-10" text-anchor="start" pointer-events="none"></text><text x="275" y="132" dx="-5" text-anchor="end" pointer-events="none"></text><text x="267.5" y="10" dy="-5" dominant-baseline="text-after-edge" text-anchor="middle" pointer-events="none"> </text></g></svg><svg x="95" y="740" width="505" height="376" class="" fill="#ffffff"><g><polyline points="5 0,5 355,505 355" stroke-width="1" marker-end="url(#marker-01ee688f-1690-43e1-a28e-acc4552858ee)" stroke="black" fill="none" class="sc-aXZVg eMElBf"></polyline><text x="5" y="8" dx="5" dy="10" text-anchor="start" pointer-events="none"></text><text x="497" y="355" dy="21" text-anchor="end" pointer-events="none"></text><text x="5" y="8" dx="-5" dy="10" text-anchor="end" pointer-events="none"></text><text x="497" y="355" dy="-10" text-anchor="end" pointer-events="none"></text><text x="327.5" y="355" dy="-5" dominant-baseline="text-after-edge" text-anchor="middle" pointer-events="none"> </text></g></svg><svg x="405" y="470" width="195" height="161" class="sender" fill="#ffffff"><g><polyline points="195 140,5 140,5 0" stroke-width="1" marker-end="url(#marker-88f37792-5d1a-40a2-9d05-1510826d453f)" stroke="black" fill="none" class="sc-aXZVg eMElBf"></polyline><text x="187" y="140" dy="21" text-anchor="end" pointer-events="none"></text><text x="5" y="8" dx="5" dy="10" text-anchor="start" pointer-events="none"></text><text x="187" y="140" dy="-10" text-anchor="end" pointer-events="none"></text><text x="5" y="8" dx="-5" dy="10" text-anchor="end" pointer-events="none"></text><text x="5" y="95" dx="5" dominant-baseline="middle" text-anchor="start" pointer-events="none">sender </text></g></svg><svg x="500" y="335" width="185" height="195" class="receiver" fill="#ffffff"><g><polyline points="180 195,180 10,0 10" stroke-width="1" marker-end="url(#marker-a64ec0c0-71d6-42f9-9372-45894b61fdc3)" stroke="black" fill="none" class="sc-aXZVg eMElBf"></polyline><text x="180" y="187" dx="5" text-anchor="start" pointer-events="none"></text><text x="8" y="10" dy="21" text-anchor="start" pointer-events="none"></text><text x="180" y="187" dx="-5" text-anchor="end" pointer-events="none"></text><text x="8" y="10" dy="-10" text-anchor="start" pointer-events="none"></text><text x="92.5" y="10" dy="-5" dominant-baseline="text-after-edge" text-anchor="middle" pointer-events="none">receiver </text></g></svg><svg x="760" y="510" width="390" height="121" class="" fill="#ffffff"><g><polyline points="0 100,385 100,385 0" stroke-width="1" marker-end="url(#marker-46ed293b-6306-428b-bb45-45aaa156de3c)" stroke="black" fill="none" class="sc-aXZVg eMElBf"></polyline><text x="8" y="100" dy="21" text-anchor="start" pointer-events="none"></text><text x="385" y="8" dx="5" dy="10" text-anchor="start" pointer-events="none"></text><text x="8" y="100" dy="-10" text-anchor="start" pointer-events="none"></text><text x="385" y="8" dx="-5" dy="10" text-anchor="end" pointer-events="none"></text><text x="292.5" y="100" dy="-5" dominant-baseline="text-after-edge" text-anchor="middle" pointer-events="none"> </text></g></svg><svg x="405" y="470" width="195" height="441" class="" fill="#ffffff"><g><polyline points="195 420,5 420,5 0" stroke-width="1" marker-end="url(#marker-d0784209-0113-4a67-8926-923c1a1cd4df)" stroke="black" fill="none" class="sc-aXZVg eMElBf"></polyline><text x="187" y="420" dy="21" text-anchor="end" pointer-events="none"></text><text x="5" y="8" dx="5" dy="10" text-anchor="start" pointer-events="none"></text><text x="187" y="420" dy="-10" text-anchor="end" pointer-events="none"></text><text x="5" y="8" dx="-5" dy="10" text-anchor="end" pointer-events="none"></text><text x="5" y="95" dx="5" dominant-baseline="middle" text-anchor="start" pointer-events="none"> </text></g></svg><svg x="760" y="510" width="390" height="401" class="" fill="#ffffff"><g><polyline points="0 380,385 380,385 0" stroke-width="1" marker-end="url(#marker-4548ee94-e068-4029-b786-674c65c735f6)" stroke="black" fill="none" class="sc-aXZVg eMElBf"></polyline><text x="8" y="380" dy="21" text-anchor="start" pointer-events="none"></text><text x="385" y="8" dx="5" dy="10" text-anchor="start" pointer-events="none"></text><text x="8" y="380" dy="-10" text-anchor="start" pointer-events="none"></text><text x="385" y="8" dx="-5" dy="10" text-anchor="end" pointer-events="none"></text><text x="385" y="192.5" dx="5" dominant-baseline="middle" text-anchor="start" pointer-events="none"> </text></g></svg><svg x="770" y="510" width="380" height="606" class="" fill="#ffffff"><g><polyline points="0 585,375 585,375 0" stroke-width="1" marker-end="url(#marker-ca5646b1-0ae6-4000-bdc3-69afd0ecff21)" stroke="black" fill="none" class="sc-aXZVg eMElBf"></polyline><text x="8" y="585" dy="21" text-anchor="start" pointer-events="none"></text><text x="375" y="8" dx="5" dy="10" text-anchor="start" pointer-events="none"></text><text x="8" y="585" dy="-10" text-anchor="start" pointer-events="none"></text><text x="375" y="8" dx="-5" dy="10" text-anchor="end" pointer-events="none"></text><text x="375" y="187.5" dx="5" dominant-baseline="middle" text-anchor="start" pointer-events="none"> </text></g></svg></svg>